HIERARCHY
ROOT Hips
{
	OFFSET 0.00000 0.00000 0.00000
	CHANNELS 6 Xposition Yposition Zposition Zrotation Yrotation Xrotation 
	JOINT LHipJoint
	{
		OFFSET 0 0 0
		CHANNELS 3 Zrotation Yrotation Xrotation
		JOINT LeftUpLeg
		{
			OFFSET 1.66553 -1.82942 0.76350
			CHANNELS 3 Zrotation Yrotation Xrotation
			JOINT LeftLeg
			{
				OFFSET 2.41740 -6.64177 0.00000
				CHANNELS 3 Zrotation Yrotation Xrotation
				JOINT LeftFoot
				{
					OFFSET 2.71614 -7.46254 0.00000
					CHANNELS 3 Zrotation Yrotation Xrotation
					JOINT LeftToeBase
					{
						OFFSET 0.08005 -0.21993 1.82495
						CHANNELS 3 Zrotation Yrotation Xrotation
						End Site
						{
							OFFSET 0.00000 -0.00000 0.93441
						}
					}
				}
			}
		}
	}
	JOINT RHipJoint
	{
		OFFSET 0 0 0
		CHANNELS 3 Zrotation Yrotation Xrotation
		JOINT RightUpLeg
		{
			OFFSET -1.63725 -1.82942 0.76350
			CHANNELS 3 Zrotation Yrotation Xrotation
			JOINT RightLeg
			{
				OFFSET -2.40538 -6.60872 0.00000
				CHANNELS 3 Zrotation Yrotation Xrotation
				JOINT RightFoot
				{
					OFFSET -2.73312 -7.50919 0.00000
					CHANNELS 3 Zrotation Yrotation Xrotation
					JOINT RightToeBase
					{
						OFFSET -0.15567 -0.42769 1.93504
						CHANNELS 3 Zrotation Yrotation Xrotation
						End Site
						{
							OFFSET -0.00000 -0.00000 1.00100
						}
					}
				}
			}
		}
	}
	JOINT LowerBack
	{
		OFFSET 0 0 0
		CHANNELS 3 Zrotation Yrotation Xrotation
		JOINT Spine
		{
			OFFSET 0.00326 2.30118 -0.13017
			CHANNELS 3 Zrotation Yrotation Xrotation
			JOINT Spine1
			{
				OFFSET 0.02887 2.30677 0.00834
				CHANNELS 3 Zrotation Yrotation Xrotation
				JOINT Neck
				{
					OFFSET 0 0 0
					CHANNELS 3 Zrotation Yrotation Xrotation
					JOINT Neck1
					{
						OFFSET 0.12946 1.68326 0.00713
						CHANNELS 3 Zrotation Yrotation Xrotation
						JOINT Head
						{
							OFFSET -0.24364 1.67243 -0.16079
							CHANNELS 3 Zrotation Yrotation Xrotation
							End Site
							{
								OFFSET -0.09229 1.70819 -0.06383
							}
						}
					}
				}
				JOINT LeftShoulder
				{
					OFFSET 0 0 0
					CHANNELS 3 Zrotation Yrotation Xrotation
					JOINT LeftArm
					{
						OFFSET 3.28104 0.69567 -0.00556
						CHANNELS 3 Zrotation Yrotation Xrotation
						JOINT LeftForeArm
						{
							OFFSET 5.70706 -0.00000 -0.00000
							CHANNELS 3 Zrotation Yrotation Xrotation
							JOINT LeftHand
							{
								OFFSET 3.33243 -0.00000 0.00000
								CHANNELS 3 Zrotation Yrotation Xrotation
								JOINT LeftFingerBase
								{
									OFFSET 0 0 0
									CHANNELS 3 Zrotation Yrotation Xrotation
									JOINT LeftHandIndex1
									{
										OFFSET 0.79269 -0.00000 0.00000
										CHANNELS 3 Zrotation Yrotation Xrotation
										End Site
										{
											OFFSET 0.63909 -0.00000 0.00000
										}
									}
								}
								JOINT LThumb
								{
									OFFSET 0 0 0
									CHANNELS 3 Zrotation Yrotation Xrotation
									End Site
									{
										OFFSET 0.64884 -0.00000 0.64884
									}
								}
							}
						}
					}
				}
				JOINT RightShoulder
				{
					OFFSET 0 0 0
					CHANNELS 3 Zrotation Yrotation Xrotation
					JOINT RightArm
					{
						OFFSET -3.40955 0.64424 0.14010
						CHANNELS 3 Zrotation Yrotation Xrotation
						JOINT RightForeArm
						{
							OFFSET -5.88176 -0.00000 -0.00000
							CHANNELS 3 Zrotation Yrotation Xrotation
							JOINT RightHand
							{
								OFFSET -3.28156 -0.00000 0.00000
								CHANNELS 3 Zrotation Yrotation Xrotation
								JOINT RightFingerBase
								{
									OFFSET 0 0 0
									CHANNELS 3 Zrotation Yrotation Xrotation
									JOINT RightHandIndex1
									{
										OFFSET -0.86313 -0.00000 0.00000
										CHANNELS 3 Zrotation Yrotation Xrotation
										End Site
										{
											OFFSET -0.69587 -0.00000 0.00000
										}
									}
								}
								JOINT RThumb
								{
									OFFSET 0 0 0
									CHANNELS 3 Zrotation Yrotation Xrotation
									End Site
									{
										OFFSET -0.70650 -0.00000 0.70650
									}
								}
							}
						}
					}
				}
			}
		}
	}
}
MOTION
Frames: 5
Frame Time: .0083333
14.7154 16.1930 -11.3561 -185.0340 -82.1864 542.3010 0.0000 0.0000 0.0000 -15.5693 20.3190 -28.1310 9.9350 17.3731 59.2709 3.6185 -3.2372 -35.3166 0.2415 -3.1627 -8.7319 0.0000 0.0000 0.0000 18.7860 -6.0730 -26.2789 -9.8080 -17.3004 58.8446 -3.1567 15.0920 -32.3051 -3.2853 -11.1431 32.7640 3.4987 -4.1386 10.2922 2.1788 -4.9274 -2.2404 1.2080 -2.5180 -8.2609 17.9649 11.7081 9.2947 -23.3746 16.1954 -9.3114 -10.2993 8.6265 -0.6551 0.0000 -0.0000 0.0000 -54.0721 19.1010 89.2163 26.1614 -37.3677 -8.9854 -0.0000 -0.0000 4.3628 9.8177 6.9623 1.2017 -7.1250 0.0000 -0.0000 -14.2708 36.7058 2.9863 0.0000 -0.0000 0.0000 56.9723 -7.6822 67.9985 -36.8732 46.1043 -16.1486 0.0000 0.0000 34.9623 17.1148 32.6797 9.4397 7.1250 -0.0000 -0.0000 26.5699 1.0535 30.5268
14.7087 16.2122 -11.3746 -182.3040 -82.2496 539.2610 0.0000 0.0000 0.0000 -14.8969 20.5215 -27.7210 9.9634 17.3892 59.3661 3.6700 -3.6879 -35.4863 0.1997 -2.8775 -7.9380 0.0000 0.0000 0.0000 19.2785 -6.2745 -25.7773 -9.7751 -17.2814 58.7341 -3.1299 15.4218 -32.2038 -3.5231 -11.4972 33.9757 3.6970 -4.1606 10.4423 2.2304 -4.9230 -2.1573 1.1601 -2.5238 -8.2707 18.0762 11.5441 9.3598 -23.3051 15.9936 -9.3458 -10.3199 8.5244 -0.7160 0.0000 0.0000 0.0000 -53.6793 18.3142 89.5594 26.3683 -37.5701 -9.1113 -0.0000 -0.0000 4.5363 9.6326 6.6379 1.1239 -7.1250 0.0000 -0.0000 -14.3572 36.3762 3.1244 0.0000 0.0000 0.0000 57.1216 -8.0999 68.4681 -37.0846 46.2445 -16.3011 0.0000 0.0000 34.5967 17.1276 32.8101 9.4800 7.1250 -0.0000 -0.0000 26.5649 1.1749 30.5784
14.7077 16.2011 -11.3866 -179.9400 -82.2890 536.7240 0.0000 0.0000 0.0000 -14.3842 20.4924 -27.4752 9.9850 17.4014 59.4382 3.7012 -3.6448 -35.6525 0.2139 -2.9774 -8.2159 0.0000 0.0000 0.0000 19.6687 -6.3332 -25.6084 -9.7823 -17.2856 58.7584 -3.1186 15.1378 -32.1161 -3.3813 -11.2881 33.2578 3.9397 -4.2190 10.5526 2.3188 -4.9567 -2.2027 1.1385 -2.5507 -8.3982 17.7580 11.4687 9.1870 -22.9009 15.8701 -9.1080 -10.1257 8.4434 -0.7151 0.0000 0.0000 0.0000 -53.5308 17.7021 89.5556 26.5884 -37.7839 -9.2458 -0.0000 -0.0000 4.9451 9.5399 6.4995 1.0898 -7.1250 0.0000 -0.0000 -14.4053 36.2350 3.1866 0.0000 0.0000 0.0000 57.0709 -8.4049 69.2139 -37.1719 46.3022 -16.3642 0.0000 0.0000 34.3898 17.0481 33.4462 9.5929 7.1250 -0.0000 -0.0000 26.4735 1.7604 30.7251
14.7034 16.1942 -11.3944 -179.4100 -82.2860 536.0880 0.0000 0.0000 0.0000 -14.2439 20.4419 -27.2346 9.9675 17.3916 59.3798 3.7081 -3.2551 -35.7669 0.2442 -3.1798 -8.7797 0.0000 0.0000 0.0000 19.7721 -6.3257 -25.5036 -9.7837 -17.2864 58.7628 -3.1527 14.4817 -32.2278 -3.0498 -10.7753 31.5257 3.9857 -4.2522 10.4932 2.2581 -4.9986 -2.3051 1.0582 -2.5753 -8.4857 17.6951 11.3352 9.1200 -22.4296 15.7373 -8.7830 -9.9552 8.3559 -0.6933 -0.0000 -0.0000 0.0000 -53.1089 17.2906 89.3948 27.1683 -38.3393 -9.6034 -0.0000 -0.0000 5.3882 9.4151 6.6848 1.1058 -7.1250 0.0000 -0.0000 -14.5451 36.4093 3.1553 -0.0000 -0.0000 0.0000 57.1301 -8.7368 70.1631 -37.2612 46.3609 -16.4288 0.0000 0.0000 34.0695 16.9744 33.5459 9.5744 7.1250 -0.0000 -0.0000 26.4302 1.8493 30.7034
14.6956 16.1892 -11.4033 -180.0450 -82.3417 536.7200 0.0000 0.0000 0.0000 -14.3143 20.3658 -27.1255 9.9500 17.3816 59.3210 3.7429 -3.1135 -35.9718 0.2592 -3.2754 -9.0463 0.0000 0.0000 0.0000 19.7167 -6.2897 -25.4925 -9.8109 -17.3021 58.8543 -3.2018 13.9478 -32.4358 -2.8299 -10.4145 30.3296 4.0944 -4.2118 10.3629 1.9578 -4.9473 -2.5494 0.6755 -2.5645 -8.7122 17.9283 11.0613 9.0748 -21.9164 15.4778 -8.2970 -9.8220 8.1994 -0.6340 0.0000 0.0000 0.0000 -52.0550 16.8020 89.8461 27.9786 -39.0966 -10.1102 -0.0000 -0.0000 5.2407 9.3225 6.8666 1.1244 -7.1250 0.0000 -0.0000 -14.6584 36.5819 3.1175 0.0000 0.0000 0.0000 57.4504 -9.4317 70.9976 -37.5137 46.5259 -16.6118 0.0000 0.0000 33.5893 16.9301 33.3019 9.4881 7.1250 -0.0000 -0.0000 26.4291 1.6210 30.5933
